# xmcd
#
# Track frame offsets:
#	150
#	14787
#	25555
#	43667
#	58482
#	75180
#	95567
#	115752
#	133277
#	148217
#
# Disc length: 2183 seconds
#
# Revision: 0
# Processed by: cddbd v1.4b42PL0 Copyright (c) Steve Scherf et al.
# Submitted via: EZCDDA 4.3.3.2
#
DISCID=8b08850a
DTITLE=Brett Williams - Seven Days of Light
DYEAR=1900
DGENRE=
TTITLE0=Seven Days of Light
TTITLE1=Million Ways
TTITLE2=There's The Cross
TTITLE3=Blessed Are These
TTITLE4=East Side Fall
TTITLE5=Curio
TTITLE6=Wings and Wheels
TTITLE7=All Part of Being a Man
TTITLE8=Maker of Days
TTITLE9=How Patient
EXTD=
EXTT0=
EXTT1=
EXTT2=
EXTT3=
EXTT4=
EXTT5=
EXTT6=
EXTT7=
EXTT8=
EXTT9=
PLAYORDER=
